<svg width="34" height="285" viewBox="0 0 34 285" fill="none" xmlns="http://www.w3.org/2000/svg">
<rect width="4" height="4" fill="#A3A19A"/>
<rect y="6" width="4" height="4" fill="#A3A19A"/>
<rect y="20" width="4" height="4" fill="#A3A19A"/>
<rect y="32" width="4" height="4" fill="#A3A19A"/>
<rect y="26" width="4" height="4" fill="#A3A19A"/>
<rect y="38" width="4" height="4" fill="#A3A19A"/>
<rect x="8" width="4" height="4" fill="#A3A19A"/>
<rect x="8" y="6" width="4" height="4" fill="#A3A19A"/>
<rect x="8" y="20" width="4" height="4" fill="#A3A19A"/>
<rect x="8" y="32" width="4" height="4" fill="#A3A19A"/>
<rect x="8" y="26" width="4" height="4" fill="#A3A19A"/>
<rect x="8" y="38" width="4" height="4" fill="#A3A19A"/>
<rect y="68" width="4" height="4" fill="#A3A19A"/>
<rect y="74" width="4" height="4" fill="#A3A19A"/>
<rect y="88" width="4" height="4" fill="#A3A19A"/>
<rect y="100" width="4" height="4" fill="#A3A19A"/>
<rect y="94" width="4" height="4" fill="#A3A19A"/>
<rect y="106" width="4" height="4" fill="#A3A19A"/>
<rect x="8" y="68" width="4" height="4" fill="#A3A19A"/>
<rect x="8" y="74" width="4" height="4" fill="#A3A19A"/>
<rect x="8" y="88" width="4" height="4" fill="#A3A19A"/>
<rect x="8" y="100" width="4" height="4" fill="#A3A19A"/>
<rect x="8" y="94" width="4" height="4" fill="#A3A19A"/>
<rect x="8" y="106" width="4" height="4" fill="#A3A19A"/>
<rect y="136" width="4" height="4" fill="#A3A19A"/>
<rect y="142" width="4" height="4" fill="#A3A19A"/>
<rect y="156" width="4" height="4" fill="#A3A19A"/>
<rect y="168" width="4" height="4" fill="#A3A19A"/>
<rect y="162" width="4" height="4" fill="#A3A19A"/>
<rect y="174" width="4" height="4" fill="#A3A19A"/>
<rect x="8" y="136" width="4" height="4" fill="#A3A19A"/>
<rect x="8" y="142" width="4" height="4" fill="#A3A19A"/>
<rect x="8" y="156" width="4" height="4" fill="#A3A19A"/>
<rect x="8" y="168" width="4" height="4" fill="#A3A19A"/>
<rect x="8" y="162" width="4" height="4" fill="#A3A19A"/>
<rect x="8" y="174" width="4" height="4" fill="#A3A19A"/>
<rect x="22" y="107" width="4" height="4" fill="#A3A19A"/>
<rect x="22" y="113" width="4" height="4" fill="#A3A19A"/>
<rect x="22" y="127" width="4" height="4" fill="#A3A19A"/>
<rect x="22" y="139" width="4" height="4" fill="#A3A19A"/>
<rect x="22" y="133" width="4" height="4" fill="#A3A19A"/>
<rect x="22" y="145" width="4" height="4" fill="#A3A19A"/>
<rect x="30" y="107" width="4" height="4" fill="#A3A19A"/>
<rect x="30" y="113" width="4" height="4" fill="#A3A19A"/>
<rect x="30" y="127" width="4" height="4" fill="#A3A19A"/>
<rect x="30" y="139" width="4" height="4" fill="#A3A19A"/>
<rect x="30" y="133" width="4" height="4" fill="#A3A19A"/>
<rect x="30" y="145" width="4" height="4" fill="#A3A19A"/>
<rect x="22" y="175" width="4" height="4" fill="#A3A19A"/>
<rect x="22" y="181" width="4" height="4" fill="#A3A19A"/>
<rect x="22" y="195" width="4" height="4" fill="#A3A19A"/>
<rect x="22" y="207" width="4" height="4" fill="#A3A19A"/>
<rect x="22" y="201" width="4" height="4" fill="#A3A19A"/>
<rect x="22" y="213" width="4" height="4" fill="#A3A19A"/>
<rect x="30" y="175" width="4" height="4" fill="#A3A19A"/>
<rect x="30" y="181" width="4" height="4" fill="#A3A19A"/>
<rect x="30" y="195" width="4" height="4" fill="#A3A19A"/>
<rect x="30" y="207" width="4" height="4" fill="#A3A19A"/>
<rect x="30" y="201" width="4" height="4" fill="#A3A19A"/>
<rect x="30" y="213" width="4" height="4" fill="#A3A19A"/>
<rect x="22" y="243" width="4" height="4" fill="#A3A19A"/>
<rect x="22" y="249" width="4" height="4" fill="#A3A19A"/>
<rect x="22" y="263" width="4" height="4" fill="#A3A19A"/>
<rect x="22" y="275" width="4" height="4" fill="#A3A19A"/>
<rect x="22" y="269" width="4" height="4" fill="#A3A19A"/>
<rect x="22" y="281" width="4" height="4" fill="#A3A19A"/>
<rect x="30" y="243" width="4" height="4" fill="#A3A19A"/>
<rect x="30" y="249" width="4" height="4" fill="#A3A19A"/>
<rect x="30" y="263" width="4" height="4" fill="#A3A19A"/>
<rect x="30" y="275" width="4" height="4" fill="#A3A19A"/>
<rect x="30" y="269" width="4" height="4" fill="#A3A19A"/>
<rect x="30" y="281" width="4" height="4" fill="#A3A19A"/>
</svg>
